<svg width="342" height="94" viewBox="0 0 342 94" fill="none" xmlns="http://www.w3.org/2000/svg">
<path d="M79 39H71V40.36H79C82.66 40.36 85.64 43.34 85.64 47C85.64 50.68 82.66 53.66 79 53.66H71V55H79C83.4 55 87 51.42 87 47C87 42.6 83.4 39 79 39Z" fill="#00204B"/>
<path d="M71 39V38.5H70.5V39H71ZM71 40.36H70.5V40.86H71V40.36ZM71 53.66V53.16H70.5V53.66H71ZM71 55H70.5V55.5H71V55ZM79 38.5H71V39.5H79V38.5ZM70.5 39V40.36H71.5V39H70.5ZM71 40.86H79V39.86H71V40.86ZM79 40.86C82.3839 40.86 85.14 43.6161 85.14 47H86.14C86.14 43.0639 82.9361 39.86 79 39.86V40.86ZM85.14 47C85.14 50.4048 82.3829 53.16 79 53.16V54.16C82.9371 54.16 86.14 50.9552 86.14 47H85.14ZM79 53.16H71V54.16H79V53.16ZM70.5 53.66V55H71.5V53.66H70.5ZM71 55.5H79V54.5H71V55.5ZM79 55.5C83.6753 55.5 87.5 51.697 87.5 47H86.5C86.5 51.143 83.1247 54.5 79 54.5V55.5ZM87.5 47C87.5 42.3239 83.6761 38.5 79 38.5V39.5C83.1239 39.5 86.5 42.8761 86.5 47H87.5Z" fill="#00204B"/>
<path d="M81 47C81 51.42 84.58 55 89 55H97V53.66H89C85.32 53.66 82.34 50.68 82.34 47C82.34 43.34 85.32 40.36 89 40.36H97V39H89C84.58 39 81 42.6 81 47Z" fill="#00204B"/>
<path d="M97 55V55.5H97.5V55H97ZM97 53.66H97.5V53.16H97V53.66ZM97 40.36V40.86H97.5V40.36H97ZM97 39H97.5V38.5H97V39ZM80.5 47C80.5 51.6961 84.3039 55.5 89 55.5V54.5C84.8561 54.5 81.5 51.1439 81.5 47H80.5ZM89 55.5H97V54.5H89V55.5ZM97.5 55V53.66H96.5V55H97.5ZM97 53.16H89V54.16H97V53.16ZM89 53.16C85.5961 53.16 82.84 50.4039 82.84 47H81.84C81.84 50.9561 85.0439 54.16 89 54.16V53.16ZM82.84 47C82.84 43.6171 85.5952 40.86 89 40.86V39.86C85.0448 39.86 81.84 43.0629 81.84 47H82.84ZM89 40.86H97V39.86H89V40.86ZM97.5 40.36V39H96.5V40.36H97.5ZM97 38.5H89V39.5H97V38.5ZM89 38.5C84.303 38.5 80.5 42.3247 80.5 47H81.5C81.5 42.8753 84.857 39.5 89 39.5V38.5Z" fill="#00204B"/>
<path d="M107.564 53V40.3965H111.818C113.629 40.3965 115.085 40.9736 116.187 42.1279C117.282 43.2764 117.83 44.7998 117.83 46.6982C117.83 48.5146 117.294 50.0205 116.222 51.2158C115.155 52.4053 113.688 53 111.818 53H107.564ZM109.604 51.1104H111.651C112.958 51.1104 113.954 50.7148 114.64 49.9238C115.325 49.1328 115.668 48.0576 115.668 46.6982C115.668 45.3564 115.325 44.29 114.64 43.499C113.948 42.7021 112.952 42.3037 111.651 42.3037H109.604V51.1104ZM122.62 53.1582C121.618 53.1582 120.83 52.8828 120.256 52.332C119.67 51.8047 119.377 51.1162 119.377 50.2666C119.377 49.3936 119.693 48.6963 120.326 48.1748C120.971 47.6475 121.92 47.3838 123.174 47.3838C123.918 47.3838 124.639 47.4863 125.336 47.6914V46.8301C125.336 46.3555 125.187 45.9688 124.888 45.6699C124.583 45.3828 124.12 45.2393 123.499 45.2393C122.96 45.2393 122.541 45.3711 122.242 45.6348C121.932 45.9102 121.768 46.2412 121.75 46.6279H119.808C119.808 45.7373 120.145 44.999 120.818 44.4131C121.48 43.8389 122.386 43.5518 123.534 43.5518C124.724 43.5518 125.658 43.8564 126.338 44.4658C127.023 45.0811 127.366 45.8604 127.366 46.8037V53H125.564L125.424 51.9014H125.354C124.779 52.7393 123.868 53.1582 122.62 53.1582ZM123.086 51.5234C123.76 51.5234 124.305 51.3242 124.721 50.9258C125.131 50.5332 125.336 50.0557 125.336 49.4932V49.1855C124.709 48.9688 124.035 48.8604 123.314 48.8604C122.693 48.8604 122.228 48.9746 121.917 49.2031C121.589 49.4434 121.425 49.7744 121.425 50.1963C121.425 50.5947 121.568 50.9111 121.855 51.1455C122.125 51.3975 122.535 51.5234 123.086 51.5234ZM129.818 53V43.71H131.541L131.726 45.1865H131.796C132.007 44.6885 132.312 44.2988 132.71 44.0176C133.12 43.7305 133.618 43.5869 134.204 43.5869H134.96V45.4941H134.169C133.384 45.4941 132.795 45.752 132.402 46.2676C131.998 46.7773 131.796 47.5098 131.796 48.4648V53H129.818ZM140.154 53.1582C138.924 53.1582 137.972 52.8652 137.298 52.2793C136.595 51.6816 136.234 50.8906 136.217 49.9062H138.265C138.265 50.3574 138.435 50.7178 138.774 50.9873C139.12 51.2627 139.58 51.4004 140.154 51.4004C141.344 51.4004 141.938 51.0518 141.938 50.3545C141.938 49.8037 141.531 49.4492 140.717 49.291L139.082 48.9834C137.365 48.6377 136.507 47.7266 136.507 46.25C136.507 45.4707 136.829 44.8232 137.474 44.3076C138.112 43.8037 138.982 43.5518 140.084 43.5518C141.186 43.5518 142.085 43.833 142.782 44.3955C143.456 44.9521 143.793 45.6846 143.793 46.5928H141.78C141.763 46.165 141.599 45.8223 141.288 45.5645C140.978 45.3242 140.564 45.2041 140.049 45.2041C139.586 45.2041 139.214 45.2949 138.933 45.4766C138.646 45.6758 138.502 45.9395 138.502 46.2676C138.502 46.8184 138.909 47.1553 139.724 47.2783L141.306 47.5859C142.237 47.8027 142.911 48.1016 143.327 48.4824C143.784 48.9043 144.013 49.5283 144.013 50.3545C144.013 51.2393 143.652 51.9219 142.932 52.4023C142.188 52.9062 141.262 53.1582 140.154 53.1582ZM146.025 53V39.6758H148.073V44.9141H148.144C148.718 44.0059 149.617 43.5518 150.842 43.5518C151.891 43.5518 152.714 43.8506 153.312 44.4482C153.909 45.0635 154.208 45.8926 154.208 46.9355V53H152.16V47.4365C152.16 46.083 151.524 45.4062 150.253 45.4062C149.603 45.4062 149.081 45.6289 148.688 46.0742C148.278 46.5195 148.073 47.123 148.073 47.8848V53H146.025ZM157.68 42.2861C157.258 42.2861 156.936 42.1748 156.713 41.9521C156.484 41.7236 156.37 41.4043 156.37 40.9941C156.37 40.5957 156.484 40.2822 156.713 40.0537C156.918 39.8311 157.24 39.7197 157.68 39.7197C158.107 39.7197 158.433 39.8311 158.655 40.0537C158.884 40.2822 158.998 40.5957 158.998 40.9941C158.998 41.3867 158.884 41.6973 158.655 41.9258C158.415 42.166 158.09 42.2861 157.68 42.2861ZM156.66 53V43.71H158.708V53H156.66ZM164.685 53.1582C162.851 53.1582 161.934 52.2588 161.934 50.46V45.459H160.396V43.71H162.021V41.75L163.806 41.249H163.981V43.71H166.231V45.459H163.981V50.0996C163.981 50.5449 164.078 50.8643 164.271 51.0576C164.477 51.2627 164.781 51.3652 165.186 51.3652C165.514 51.3652 165.815 51.3213 166.091 51.2334H166.267V52.9648C165.833 53.0938 165.306 53.1582 164.685 53.1582ZM171.03 53.1582C170.028 53.1582 169.24 52.8828 168.666 52.332C168.08 51.8047 167.787 51.1162 167.787 50.2666C167.787 49.3936 168.104 48.6963 168.736 48.1748C169.381 47.6475 170.33 47.3838 171.584 47.3838C172.328 47.3838 173.049 47.4863 173.746 47.6914V46.8301C173.746 46.3555 173.597 45.9688 173.298 45.6699C172.993 45.3828 172.53 45.2393 171.909 45.2393C171.37 45.2393 170.951 45.3711 170.652 45.6348C170.342 45.9102 170.178 46.2412 170.16 46.6279H168.218C168.218 45.7373 168.555 44.999 169.229 44.4131C169.891 43.8389 170.796 43.5518 171.944 43.5518C173.134 43.5518 174.068 43.8564 174.748 44.4658C175.434 45.0811 175.776 45.8604 175.776 46.8037V53H173.975L173.834 51.9014H173.764C173.189 52.7393 172.278 53.1582 171.03 53.1582ZM171.496 51.5234C172.17 51.5234 172.715 51.3242 173.131 50.9258C173.541 50.5332 173.746 50.0557 173.746 49.4932V49.1855C173.119 48.9688 172.445 48.8604 171.725 48.8604C171.104 48.8604 170.638 48.9746 170.327 49.2031C169.999 49.4434 169.835 49.7744 169.835 50.1963C169.835 50.5947 169.979 50.9111 170.266 51.1455C170.535 51.3975 170.945 51.5234 171.496 51.5234ZM188.793 53.1582C186.941 53.1582 185.512 52.5664 184.504 51.3828C183.496 50.2168 182.992 48.6611 182.992 46.7158C182.992 44.7705 183.496 43.2061 184.504 42.0225C185.518 40.833 186.947 40.2383 188.793 40.2383C190.316 40.2383 191.547 40.6631 192.484 41.5127C193.416 42.3564 193.943 43.4668 194.066 44.8438H191.904C191.816 44.0352 191.512 43.3877 190.99 42.9014C190.475 42.4209 189.742 42.1807 188.793 42.1807C187.562 42.1807 186.648 42.5938 186.051 43.4199C185.453 44.2637 185.154 45.3623 185.154 46.7158C185.154 48.0752 185.453 49.168 186.051 49.9941C186.648 50.8203 187.562 51.2334 188.793 51.2334C189.689 51.2334 190.401 51.0049 190.929 50.5479C191.45 50.0967 191.781 49.4727 191.922 48.6758H194.066C193.908 50 193.366 51.0811 192.44 51.9189C191.526 52.7451 190.311 53.1582 188.793 53.1582ZM196.229 53V39.6758H198.276V44.9141H198.347C198.921 44.0059 199.82 43.5518 201.045 43.5518C202.094 43.5518 202.917 43.8506 203.515 44.4482C204.112 45.0635 204.411 45.8926 204.411 46.9355V53H202.363V47.4365C202.363 46.083 201.728 45.4062 200.456 45.4062C199.806 45.4062 199.284 45.6289 198.892 46.0742C198.481 46.5195 198.276 47.123 198.276 47.8848V53H196.229ZM209.491 53.1582C208.489 53.1582 207.701 52.8828 207.127 52.332C206.541 51.8047 206.248 51.1162 206.248 50.2666C206.248 49.3936 206.564 48.6963 207.197 48.1748C207.842 47.6475 208.791 47.3838 210.045 47.3838C210.789 47.3838 211.51 47.4863 212.207 47.6914V46.8301C212.207 46.3555 212.058 45.9688 211.759 45.6699C211.454 45.3828 210.991 45.2393 210.37 45.2393C209.831 45.2393 209.412 45.3711 209.113 45.6348C208.803 45.9102 208.639 46.2412 208.621 46.6279H206.679C206.679 45.7373 207.016 44.999 207.689 44.4131C208.352 43.8389 209.257 43.5518 210.405 43.5518C211.595 43.5518 212.529 43.8564 213.209 44.4658C213.895 45.0811 214.237 45.8604 214.237 46.8037V53H212.436L212.295 51.9014H212.225C211.65 52.7393 210.739 53.1582 209.491 53.1582ZM209.957 51.5234C210.631 51.5234 211.176 51.3242 211.592 50.9258C212.002 50.5332 212.207 50.0557 212.207 49.4932V49.1855C211.58 48.9688 210.906 48.8604 210.186 48.8604C209.564 48.8604 209.099 48.9746 208.788 49.2031C208.46 49.4434 208.296 49.7744 208.296 50.1963C208.296 50.5947 208.439 50.9111 208.727 51.1455C208.996 51.3975 209.406 51.5234 209.957 51.5234ZM220.214 53.1582C218.38 53.1582 217.463 52.2588 217.463 50.46V45.459H215.925V43.71H217.551V41.75L219.335 41.249H219.511V43.71H221.761V45.459H219.511V50.0996C219.511 50.5449 219.607 50.8643 219.801 51.0576C220.006 51.2627 220.311 51.3652 220.715 51.3652C221.043 51.3652 221.345 51.3213 221.62 51.2334H221.796V52.9648C221.362 53.0938 220.835 53.1582 220.214 53.1582ZM229.759 43.71H231.815V49.4756C231.815 50.5596 231.467 51.4414 230.77 52.1211C230.072 52.8008 229.088 53.1406 227.816 53.1406C226.551 53.1406 225.572 52.7949 224.881 52.1035C224.172 51.4121 223.817 50.5361 223.817 49.4756V43.71H225.874V49.1504C225.874 50.5508 226.521 51.251 227.816 51.251C229.111 51.251 229.759 50.5508 229.759 49.1504V43.71ZM234.338 53V43.71H236.061L236.245 45.1865H236.315C236.526 44.6885 236.831 44.2988 237.229 44.0176C237.64 43.7305 238.138 43.5869 238.724 43.5869H239.479V45.4941H238.688C237.903 45.4941 237.314 45.752 236.922 46.2676C236.518 46.7773 236.315 47.5098 236.315 48.4648V53H234.338ZM243.83 53L240.481 43.8945V43.71H242.582L245.017 50.873H245.087L247.442 43.71H249.534V43.8945L246.238 53H243.83ZM254.605 53.1582C253.229 53.1582 252.153 52.71 251.38 51.8135C250.601 50.9111 250.211 49.7598 250.211 48.3594C250.211 46.9473 250.589 45.793 251.345 44.8965C252.083 44 253.155 43.5518 254.562 43.5518C255.897 43.5518 256.932 43.9707 257.664 44.8086C258.396 45.6465 258.763 46.7334 258.763 48.0693V48.9307H252.338C252.338 49.6982 252.534 50.3047 252.927 50.75C253.313 51.207 253.873 51.4355 254.605 51.4355C255.719 51.4355 256.396 51.0137 256.636 50.1699H258.631C258.508 51.0488 258.077 51.7637 257.339 52.3145C256.589 52.877 255.678 53.1582 254.605 53.1582ZM252.355 47.4717H256.653C256.636 46.8271 256.457 46.2998 256.117 45.8896C255.754 45.4912 255.235 45.292 254.562 45.292C253.864 45.292 253.325 45.4912 252.944 45.8896C252.569 46.2998 252.373 46.8271 252.355 47.4717ZM264.045 53.1582C262.855 53.1582 261.921 52.7217 261.241 51.8486C260.55 50.9873 260.195 49.8184 260.178 48.3418C260.195 46.8945 260.544 45.7344 261.224 44.8613C261.886 43.9883 262.826 43.5518 264.045 43.5518C265.264 43.5518 266.151 43.9766 266.708 44.8262H266.778V39.6758H268.835V53H267.016L266.778 51.8838H266.708C266.151 52.7334 265.264 53.1582 264.045 53.1582ZM264.555 51.3477C265.316 51.3477 265.891 51.0635 266.277 50.4951C266.664 49.9268 266.857 49.209 266.857 48.3418C266.857 47.4629 266.67 46.748 266.295 46.1973C265.92 45.6465 265.34 45.3711 264.555 45.3711C263.758 45.3711 263.181 45.6465 262.823 46.1973C262.448 46.748 262.261 47.4629 262.261 48.3418C262.261 49.2266 262.448 49.9443 262.823 50.4951C263.192 51.0635 263.77 51.3477 264.555 51.3477ZM272.307 42.2861C271.885 42.2861 271.562 42.1748 271.34 41.9521C271.111 41.7236 270.997 41.4043 270.997 40.9941C270.997 40.5957 271.111 40.2822 271.34 40.0537C271.545 39.8311 271.867 39.7197 272.307 39.7197C272.734 39.7197 273.06 39.8311 273.282 40.0537C273.511 40.2822 273.625 40.5957 273.625 40.9941C273.625 41.3867 273.511 41.6973 273.282 41.9258C273.042 42.166 272.717 42.2861 272.307 42.2861ZM271.287 53V43.71H273.335V53H271.287Z" fill="#00204B"/>
</svg>
